<?xml version="1.0" encoding="utf-8"?>
<svg viewBox="0 0 512 512"
	xmlns="http://www.w3.org/2000/svg"
	xmlns:xlink="http://www.w3.org/1999/xlink">
	<style>:root>svg{display:none}:root>svg:target{display:block}</style>
	<svg viewBox="0 0 490.656 490.656" id="icons--down-arrow"
		xmlns="http://www.w3.org/2000/svg">
		<path d="M487.536 120.445c-4.16-4.16-10.923-4.16-15.083 0L245.339 347.581 18.203 120.467c-4.16-4.16-10.923-4.16-15.083 0s-4.16 10.923 0 15.083l234.667 234.667c2.091 2.069 4.821 3.115 7.552 3.115s5.461-1.045 7.531-3.136l234.667-234.667c4.159-4.161 4.159-10.924-.001-15.084z"/>
	</svg>
	<svg viewBox="0 0 512 512" id="icons--left-arrow"
		xmlns="http://www.w3.org/2000/svg">
		<path d="M492 236H68.442l70.164-69.824c7.829-7.792 7.859-20.455.067-28.284-7.792-7.83-20.456-7.859-28.285-.068l-104.504 104-.018.019c-7.809 7.792-7.834 20.496-.002 28.314l.018.019 104.504 104c7.828 7.79 20.492 7.763 28.285-.068 7.792-7.829 7.762-20.492-.067-28.284L68.442 276H492c11.046 0 20-8.954 20-20s-8.954-20-20-20z"/>
	</svg>
	<svg viewBox="0 0 512 512" id="icons--right-arrow"
		xmlns="http://www.w3.org/2000/svg">
		<path d="M506.134 241.843l-.018-.019-104.504-104c-7.829-7.791-20.492-7.762-28.285.068-7.792 7.829-7.762 20.492.067 28.284L443.558 236H20c-11.046 0-20 8.954-20 20s8.954 20 20 20h423.557l-70.162 69.824c-7.829 7.792-7.859 20.455-.067 28.284 7.793 7.831 20.457 7.858 28.285.068l104.504-104 .018-.019c7.833-7.818 7.808-20.522-.001-28.314z"/>
	</svg>
	<svg viewBox="0 0 27 28" id="icons--search"
		xmlns="http://www.w3.org/2000/svg">
		<path d="M13 3C7.489 3 3 7.489 3 13s4.489 10 10 10a9.947 9.947 0 006.322-2.264l5.971 5.971a1 1 0 101.414-1.414l-5.97-5.97A9.947 9.947 0 0023 13c0-5.511-4.489-10-10-10zm0 2c4.43 0 8 3.57 8 8s-3.57 8-8 8-8-3.57-8-8 3.57-8 8-8z"/>
	</svg>
</svg>